<svg width="31" height="35" viewBox="0 0 31 35" fill="none" xmlns="http://www.w3.org/2000/svg">
<g clip-path="url(#clip0_15_1737)">
<path d="M4.81644 25.8962C4.49086 25.7959 4.28145 25.6437 4.2333 25.3543C4.16681 24.9785 4.15229 24.888 4.36246 24.6384L3.68302 23.8429L4.18515 22.871L3.99332 22.7903L3.27032 23.55C3.2023 23.3984 3.11135 23.2981 3.14574 23.2543C3.2986 23.056 3.50113 22.8814 3.27491 22.6335C3.22828 22.5828 3.07925 22.3251 2.91111 22.2092L3.47285 22.3337C3.10371 22.0305 3.10371 22.0305 2.93786 22.2329C2.75367 22.1752 2.49382 22.1516 2.39828 22.0455C1.9359 21.5313 1.50715 20.9993 1.09291 20.462C1.0119 20.3571 0.805544 20.1057 1.31531 20.2118C1.0096 19.8942 0.700073 19.6296 0.497541 19.3235C0.421114 19.2082 0.607597 18.9995 0.703131 18.7603C0.526584 18.6133 0.296537 18.4208 0 18.1723C0.090184 17.9723 0.434105 17.721 0.0947689 17.3936C-0.0450928 17.2592 0.0603795 17.1906 0.732938 16.8252L0.107 16.4142C0.593841 15.9282 0.593839 15.9282 1.16551 16.1542C1.17561 16.0488 1.17408 15.9429 1.16093 15.8377C1.11895 15.717 1.06609 15.5985 1.00272 15.4832L1.52778 15.4457L1.36958 15.0157C1.53695 15.0549 1.62102 15.0618 1.6814 15.0941C1.72043 15.1275 1.74309 15.1701 1.7456 15.2146C1.83425 15.6152 2.28059 14.9333 2.41739 15.3477C2.47013 15.5103 2.70399 15.6648 2.905 15.7657C3.01047 15.8187 3.22522 15.7466 3.47667 15.7236L3.16714 16.0199L4.94255 16.6465C4.79733 16.7796 4.67811 16.8874 4.51226 17.0385C5.88031 17.1785 5.7863 18.0397 6.02705 18.7367C6.08131 18.8952 6.09736 19.0612 6.29454 19.2192C6.31365 18.9598 6.33352 18.7004 6.36256 18.3095C7.11613 18.9678 7.35229 19.6688 7.69086 20.3L6.98621 20.8332L7.84907 21.1255L7.8185 21.1013L8.14713 21.6777L8.69206 21.4056C9.26374 21.8587 8.67219 22.3516 8.85944 22.8416C9.06655 22.8612 9.50601 22.6496 9.48919 23.1016C9.48919 23.1811 9.88585 23.2682 10.1006 23.3529C9.94088 23.5016 9.77885 23.6492 9.61759 23.7968C10.1319 23.6705 10.1319 23.6705 10.0922 23.3494C10.4254 23.4958 10.5966 23.7138 10.6226 24.0325L9.86293 24.1588C10.0609 24.2741 10.1618 24.3761 10.2879 24.3992C10.5936 24.4568 10.8496 24.5098 10.9184 24.7894C10.9405 24.8787 11.1186 25.0269 11.1928 25.0165C11.8714 24.9214 11.8432 25.2759 11.9929 25.6097C12.1672 25.9982 12.5218 26.3406 12.9452 26.6525C12.907 26.5424 12.8971 26.4219 12.8268 26.3239C12.5081 25.8824 12.505 25.8875 13.0637 25.5578C13.1501 25.5071 13.2548 25.4166 13.2525 25.3463C13.241 24.9883 13.1967 24.6303 13.163 24.266C14.0183 23.7898 13.8364 23.1131 13.6438 22.4133H14.3989L13.9457 22.8473C14.1153 22.8906 14.2934 22.9845 14.3935 22.9494C14.5166 22.9067 14.6763 22.7315 14.6442 22.6577C14.4982 22.3274 14.5907 21.94 14.178 21.6662C13.8967 21.4783 13.9487 21.2177 14.1612 20.9941C14.3186 20.8263 14.431 20.5525 14.849 20.7981C14.6748 21.0327 14.1734 21.2154 14.5693 21.5895L15.1242 20.8315C15.0325 20.7352 14.9102 20.5144 14.6908 20.3951C14.2888 20.1778 14.2758 19.9028 14.4172 19.6204C14.5815 19.2832 14.798 18.9618 15.0623 18.6629C15.1555 18.5597 15.465 18.5355 15.6775 18.5326C16.0359 18.5274 16.1605 18.4254 16.0596 18.1291C15.7669 18.2179 15.4383 18.509 15.2189 18.0951C15.6286 17.9175 16.3776 18.1043 16.3653 17.4454C16.2736 17.9095 15.812 17.642 15.5346 17.7308C15.5468 17.6864 15.5392 17.6293 15.5736 17.6005C15.9557 17.2794 15.9557 17.2806 15.6416 16.8511L17.0608 16.6511C16.9729 16.549 16.8935 16.4511 16.8063 16.3571C16.402 15.9242 16.3875 15.135 16.7788 14.777C17.326 14.2761 17.326 14.2761 16.8728 13.6495L17.7494 13.7135C17.7609 13.6939 17.7861 13.6726 17.7823 13.6558C17.728 13.4253 17.5675 13.1797 17.6394 12.9785C17.725 12.741 18.0108 12.545 18.2126 12.3294C18.2951 12.4793 18.3746 12.6309 18.5107 12.8903L18.8049 12.2389L18.1935 12.3438C17.8327 12.0158 18.0941 11.7466 18.3288 11.4636L18.7109 12.021L19.2176 11.7409L18.5573 10.9627C19.3361 11.3472 19.3842 10.8232 19.7541 10.6854L19.1641 10.5926L19.6112 10.4323C19.5906 10.0755 19.3506 9.63222 20.1462 9.40106C20.0484 9.63453 19.9727 9.81612 19.897 9.99827L20.0132 10.0559L20.7821 9.50425C20.737 9.42528 20.7293 9.36994 20.6888 9.3463C20.4916 9.23102 20.0988 9.09959 20.1179 9.02177C20.1882 8.73758 20.3311 8.43032 20.5765 8.21934C20.6926 8.12019 20.7767 8.09829 20.7553 7.94611C20.6728 7.3489 21.0312 6.80186 21.3293 6.29804C21.5654 5.89453 22.2105 5.63397 22.6866 5.30078L23.0451 5.45584C23.4456 5.2414 23.2361 5.06097 22.9686 4.87247L23.3699 4.35366C23.8758 4.59577 24.0035 4.21071 24.4873 4.01645L23.7994 3.9219C23.5266 3.45325 24.021 3.2244 24.4261 2.90505L24.6554 3.2417L24.7968 2.83473L25.0498 3.07452C25.5496 2.81512 25.0459 2.14472 25.8354 2.04615C25.8354 2.00061 25.8477 1.97121 25.8354 1.95852C25.6749 1.81902 25.3578 1.67029 25.3769 1.54751C25.4288 1.20798 25.8354 1.57634 26.0211 1.42704C26.2069 1.27774 26.6891 1.33884 26.6463 0.950314C26.6387 0.882292 27.14 0.85693 27.0911 0.476473C27.046 0.124262 27.6934 -0.0752033 28.1909 0.0302871C28.4966 0.0942731 28.797 0.158836 29.108 0.203222C29.4864 0.260867 30.4539 0.686293 30.4524 0.886321C30.4478 1.47488 31.0164 2.05652 30.366 2.66641C29.9839 3.02323 30.1497 3.46651 30.6511 3.77721C30.3569 4.02624 30.3569 4.02624 29.6369 3.99742C29.6553 4.08562 29.6369 4.21533 29.6935 4.23666C30.3347 4.48453 30.4165 4.60846 30.1436 5.05002C30.0725 5.16531 29.9472 5.25812 29.8379 5.36764C29.562 5.11804 29.562 5.11804 29.5559 4.80503C29.212 5.15436 29.212 5.15436 29.4795 5.77751C29.2441 5.83515 29.0117 5.91931 28.7718 5.93372C28.5883 5.94468 28.395 5.86512 28.1817 5.87204C28.6265 6.31879 27.7492 6.81454 28.4378 7.27166C28.4852 6.90158 28.5249 6.59144 28.5623 6.30034L29.3266 6.17698C29.416 7.13043 28.4859 7.48149 27.5864 7.89654L28.2268 8.28909L27.176 8.39055C27.9234 8.81308 27.2975 9.24716 27.2142 9.68526C27.1913 9.80863 27.017 9.91584 26.9849 10.038C26.9466 10.2148 26.8613 10.3839 26.734 10.5351C26.6067 10.6862 26.4401 10.8164 26.2443 10.9177C25.9386 11.0906 25.6627 11.3944 25.7208 11.7622C25.7728 12.0931 25.6062 12.3715 25.331 12.6269C25.2424 12.725 25.1746 12.8329 25.13 12.9468C24.9856 13.235 24.8839 13.5342 24.699 13.804C24.4811 14.1216 24.2671 14.4675 24.2519 14.7955C24.232 15.2422 24.0226 15.4613 23.4226 15.5161C23.4387 15.7749 24.0249 15.934 23.5495 16.2355L22.8059 16.0625C22.9335 16.4747 23.0451 16.835 23.146 17.1578C22.9167 17.2483 22.6217 17.2904 22.5261 17.4166C22.3947 17.5895 22.3221 17.9977 22.3733 18.0138C22.7738 18.1337 22.5659 18.2646 22.3916 18.332C22.2923 18.3701 22.1027 18.2847 21.959 18.2438C21.8154 18.2029 21.6938 18.1504 21.4539 18.2C21.5639 18.3101 21.6724 18.4219 21.7848 18.5309C22.2113 18.9448 22.1226 19.1719 21.4745 19.3996C21.3216 19.4532 21.2055 19.565 21.0037 19.6936L21.8597 19.9432C21.6541 20.2891 21.7068 20.7756 21.0083 21.0961L21.3652 20.4245L20.7064 20.4574C20.5895 20.688 21.074 20.9975 20.5283 21.1624C20.5031 21.1699 20.4832 21.2512 20.5046 21.2777C20.9632 21.7671 20.4916 22.1354 20.2394 22.5395C20.1875 22.6225 20.2639 22.7516 20.2815 22.8594L20.2509 22.886L19.8153 22.9125C19.8351 23.1523 19.8535 23.3771 19.8772 23.6584L20.5031 23.9922C20.3403 24.4521 20.0662 24.8854 19.6945 25.2702C19.5417 25.4298 19.5959 25.6967 19.5294 26.0564C19.2933 25.8161 19.1404 25.6593 18.986 25.5019C18.6184 25.7163 18.354 25.9585 18.7109 26.3585L19.385 26.4617C19.6143 26.6531 19.6639 27.4417 19.4056 27.5777C18.9257 27.8325 18.9333 28.1835 18.9218 28.5876L18.555 28.4476L18.0926 29.4154L18.8691 29.3457C18.7483 29.71 18.3639 30.0466 18.811 30.4109C18.2355 30.66 18.4694 31.2065 17.9856 31.4878L18.5076 31.6797L17.6669 31.7235C17.7166 31.9466 17.7655 32.1639 17.8198 32.4095C17.66 32.5455 17.0005 32.3052 17.232 32.7727L18.0834 32.9894L17.6875 33.6454L16.5686 33.3243C16.7337 33.7417 16.8629 34.0691 17.0226 34.4772C16.684 34.1769 16.1605 34.3418 15.8655 33.9699C15.6783 34.2928 15.439 34.5089 15.0103 34.2634C14.7168 34.7447 14.7168 34.7447 14.1123 34.6669C14.1895 34.6357 14.2694 34.6086 14.3515 34.5856C14.4338 34.5726 14.517 34.5628 14.6006 34.5562C14.593 34.5055 14.6045 34.4473 14.58 34.4363C14.3003 34.317 14.0343 34.1556 13.7011 34.3954C13.6247 34.449 13.3717 34.4179 13.2471 34.3642C12.6433 34.102 12.0556 33.8189 11.3899 33.5099L11.043 33.8402C10.9938 33.7786 10.9504 33.7145 10.913 33.6483C10.7525 33.269 10.6624 32.8718 10.2626 32.5675C10.1503 32.4821 9.99361 32.3029 10.3039 32.2014C10.1426 32.0089 9.99285 31.8106 9.8186 31.6249C9.61759 31.4111 9.3715 31.3765 9.16744 31.5886L8.10281 30.5631L8.40851 30.3821C8.13108 30.2345 7.8911 30.1066 7.5212 29.9106L8.2014 29.6915C7.73519 29.3699 7.31714 29.0574 6.86163 28.7761C6.44816 28.5237 6.26015 27.9691 6.55592 27.5846H6.04233C5.69382 26.9159 5.69841 26.9044 6.42064 26.8035C6.35337 26.7132 6.29463 26.6194 6.24486 26.5228C6.20583 26.4045 6.17597 26.2846 6.15544 26.1637C5.62733 26.2991 5.16189 26.1867 4.78434 25.8754C5.30328 25.8385 5.56695 25.6183 5.58988 25.1837L4.74307 25.3048C4.77517 25.5446 4.79504 25.7204 4.81644 25.8962ZM23.5739 14.4663C23.4731 14.5684 23.3347 14.6617 23.2851 14.777C23.2499 14.8595 23.3347 14.9707 23.3661 15.0699C23.4929 15.0382 23.6993 15.0301 23.7299 14.9707C23.7948 14.8428 24.2243 14.7182 23.7948 14.5465C23.8009 14.1804 23.8009 14.1804 23.4234 13.8905C23.4906 14.1533 23.5311 14.3095 23.5724 14.4663H23.5739ZM17.7013 15.4964L17.151 15.3489C17.1441 15.2261 17.1365 15.1045 17.1243 14.9073C16.7521 15.2958 16.7284 15.5697 17.1923 15.8112C17.3505 15.712 17.4835 15.6296 17.6998 15.4964H17.7013ZM19.3063 26.8347L18.3402 26.4709C18.3876 26.7257 18.4304 26.9574 18.474 27.1932L19.3063 26.8347ZM1.86788 16.9508L2.05054 17.0304C2.07118 16.8367 2.49611 16.9382 2.40593 16.6269C2.34479 16.4159 2.27982 16.2948 1.9382 16.3139C1.91221 16.522 1.89157 16.7364 1.86788 16.9508ZM10.0035 30.6732L9.03904 30.7159L9.48537 31.1684L10.0035 30.6732ZM1.93896 20.9312C2.10939 20.6666 2.31268 20.4741 1.88164 20.2245C1.73413 20.4631 1.46129 20.6361 1.93896 20.9301V20.9312ZM24.7211 13.073L24.0791 13.1814C24.1456 13.3192 24.2113 13.4576 24.3413 13.7302C24.5025 13.4506 24.5767 13.3227 24.7211 13.0719V13.073ZM27.0185 9.57746L26.897 9.35783L26.2527 9.56247L26.3291 9.72504L27.0185 9.57746ZM25.8721 10.264L25.6589 10.8774L25.8973 10.9321C26.1159 10.7569 25.9799 10.4963 25.8691 10.2629L25.8721 10.264ZM19.3567 24.5905C19.2581 24.6793 19.1435 24.7375 19.1427 24.7963C19.1419 24.8551 19.2535 24.9174 19.3154 24.9785C19.3918 24.9169 19.4568 24.8479 19.5088 24.7733C19.521 24.7416 19.4331 24.6805 19.3536 24.5894L19.3567 24.5905ZM15.4689 19.3368C15.1288 19.6112 15.3588 19.7051 15.6553 19.9392C15.5667 19.6613 15.5246 19.5276 15.4658 19.3356L15.4689 19.3368ZM1.20679 17.6564C1.58892 17.5601 1.58892 17.5602 1.60573 17.4097L1.20679 17.6564ZM25.1759 11.8429C25.156 11.7807 25.1354 11.7184 25.1155 11.6561L24.5805 11.7974L24.6378 11.9478L25.1759 11.8429ZM2.57407 21.5204L2.72233 21.4673L2.50222 21.1013L2.34249 21.1589L2.57407 21.5204ZM17.7013 13.8916L17.608 13.9769L17.861 14.1977L18.033 14.0547L17.7013 13.8916ZM22.0041 6.91138L22.2334 6.70098C22.1707 6.66524 22.102 6.59663 22.0462 6.60182C22.0074 6.61118 21.9721 6.62713 21.9428 6.64842C21.9135 6.6697 21.8911 6.69577 21.8773 6.72461C21.8635 6.75689 21.9361 6.81396 22.0041 6.91138ZM27.5291 1.31059L27.3869 1.3227C27.3874 1.37196 27.382 1.42116 27.3708 1.4697C27.3112 1.63514 27.3708 1.73025 27.6001 1.64263C27.6399 1.62649 27.5558 1.42415 27.5291 1.30829V1.31059Z" fill="#00B76C"/>
<path d="M7.84905 21.1252C7.92548 20.9476 7.48755 20.6392 8.14177 20.5925L8.56058 21.0675L7.81848 21.1009L7.84905 21.1252Z" fill="#00B76C"/>
<path d="M20.2701 22.8563C20.572 22.8563 20.572 22.8563 20.5085 23.2407C20.4189 23.1212 20.3292 23.0019 20.2395 22.8828L20.2701 22.8563Z" fill="#00B76C"/>
<path d="M9.53493 22.6902L9.34692 22.2193L9.49978 22.172C9.57621 22.3265 9.64575 22.4804 9.71912 22.6332L9.53493 22.6902Z" fill="#00B76C"/>
<path d="M4.35795 15.7308V16.1043L4.18981 16.1141L4.15771 15.7348L4.35795 15.7308Z" fill="#00B76C"/>
</g>
<defs>
<clipPath id="clip0_15_1737">
<rect width="30.6641" height="34.6988" fill="white"/>
</clipPath>
</defs>
</svg>
